<svg width="179" height="25" viewBox="0 0 179 25" fill="none" xmlns="http://www.w3.org/2000/svg">
<path d="M8.95038 20.0391L8.27686 20.8977L9.80067 23.2893L9.64181 24.3954H16.1063L16.5538 23.2893L13.9537 20.0391H8.95038Z" fill="url(#paint0_linear_272_6687)"/>
<path d="M12.3804 5.66531L10.0195 9.73719L21.5346 23.164L21.207 24.3951H26.4891L27.4447 20.027L15.1231 5.66309L12.3804 5.66531Z" fill="url(#paint1_linear_272_6687)"/>
<path d="M14.1968 2.71299L13.0688 4.7765H15.867L20.6691 10.4551L23.5239 8.12547V6.64606L22.5323 5.26138L23.2652 4.50363L17.5373 0L14.1968 2.71299Z" fill="url(#paint2_linear_272_6687)"/>
<path d="M5.42531 13.87H3.93248L0 19.0395V24.3952H4.21848L4.9638 23.3922L8.21812 19.0282H12.9263L14.3758 16.7284L9.27111 10.4551L5.42531 13.87Z" fill="url(#paint3_linear_272_6687)"/>
<g clip-path="url(#clip0_272_6687)">
<path d="M97.7927 5.98828H100.399L104.237 16.7805L108.075 5.98828H110.682L105.284 20.6875H103.191L97.7927 5.98828ZM96.3867 5.98828H98.9832L99.4551 16.5079V20.6875H96.3867V5.98828ZM109.492 5.98828H112.099V20.6875H109.02V16.5079L109.492 5.98828Z" fill="url(#paint4_linear_272_6687)"/>
<path d="M120.606 18.2246V13.3584C120.606 13.0085 120.548 12.709 120.431 12.4599C120.315 12.2042 120.134 12.0056 119.888 11.8643C119.648 11.723 119.337 11.6523 118.954 11.6523C118.625 11.6523 118.341 11.7095 118.102 11.8239C117.862 11.9316 117.678 12.0898 117.548 12.2984C117.418 12.5003 117.353 12.7393 117.353 13.0152H114.397C114.397 12.5508 114.507 12.11 114.725 11.6927C114.945 11.2754 115.262 10.9086 115.68 10.5923C116.097 10.2692 116.593 10.0168 117.168 9.8351C117.75 9.65336 118.4 9.5625 119.118 9.5625C119.98 9.5625 120.746 9.70384 121.416 9.9865C122.087 10.2692 122.614 10.6932 122.997 11.2586C123.387 11.8239 123.582 12.5306 123.582 13.3786V18.0529C123.582 18.652 123.619 19.1433 123.695 19.5269C123.77 19.9038 123.88 20.2336 124.023 20.5163V20.6879H121.037C120.893 20.3918 120.784 20.0216 120.708 19.5774C120.64 19.1264 120.606 18.6755 120.606 18.2246ZM120.996 14.0349L121.016 15.6805H119.364C118.974 15.6805 118.636 15.7242 118.348 15.8117C118.061 15.8992 117.825 16.0237 117.64 16.1852C117.455 16.34 117.318 16.5218 117.23 16.7304C117.148 16.9391 117.106 17.1679 117.106 17.4169C117.106 17.6659 117.164 17.8914 117.281 18.0933C117.397 18.2885 117.565 18.4433 117.784 18.5577C118.003 18.6654 118.259 18.7192 118.554 18.7192C118.998 18.7192 119.385 18.6318 119.713 18.4568C120.042 18.2818 120.295 18.0664 120.472 17.8106C120.657 17.5549 120.753 17.3126 120.76 17.0837L121.54 18.3154C121.43 18.5914 121.28 18.8774 121.088 19.1736C120.904 19.4697 120.667 19.749 120.38 20.0115C120.093 20.2673 119.747 20.4793 119.344 20.6475C118.94 20.8091 118.461 20.8898 117.907 20.8898C117.202 20.8898 116.562 20.7518 115.988 20.4759C115.42 20.1932 114.968 19.8062 114.633 19.3149C114.305 18.8168 114.141 18.2515 114.141 17.6188C114.141 17.0468 114.25 16.5386 114.469 16.0944C114.688 15.6502 115.009 15.2766 115.434 14.9738C115.864 14.6642 116.402 14.432 117.045 14.2771C117.688 14.1156 118.434 14.0349 119.282 14.0349H120.996Z" fill="url(#paint5_linear_272_6687)"/>
<path d="M128.754 12.0965V20.6879H125.798V9.76443H128.569L128.754 12.0965ZM128.323 14.8425H127.523C127.523 14.0349 127.629 13.308 127.84 12.6619C128.053 12.009 128.35 11.4537 128.733 10.9961C129.117 10.5317 129.572 10.1783 130.098 9.93602C130.632 9.68701 131.227 9.5625 131.884 9.5625C132.404 9.5625 132.88 9.63653 133.31 9.78462C133.741 9.93267 134.111 10.1682 134.419 10.4913C134.734 10.8143 134.973 11.2417 135.137 11.7734C135.308 12.3051 135.394 12.9546 135.394 13.7219V20.6879H132.418V13.7118C132.418 13.2272 132.349 12.8503 132.212 12.5811C132.076 12.3119 131.874 12.1234 131.607 12.0157C131.347 11.9013 131.026 11.8441 130.642 11.8441C130.245 11.8441 129.9 11.9215 129.606 12.0763C129.318 12.2311 129.079 12.4465 128.887 12.7224C128.703 12.9917 128.562 13.308 128.467 13.6714C128.371 14.0349 128.323 14.4252 128.323 14.8425Z" fill="url(#paint6_linear_272_6687)"/>
<path d="M143.635 18.2246V13.3584C143.635 13.0085 143.576 12.709 143.46 12.4599C143.344 12.2042 143.163 12.0056 142.916 11.8643C142.677 11.723 142.366 11.6523 141.982 11.6523C141.654 11.6523 141.37 11.7095 141.131 11.8239C140.891 11.9316 140.707 12.0898 140.576 12.2984C140.447 12.5003 140.381 12.7393 140.381 13.0152H137.426C137.426 12.5508 137.535 12.11 137.754 11.6927C137.973 11.2754 138.291 10.9086 138.709 10.5923C139.126 10.2692 139.622 10.0168 140.197 9.8351C140.778 9.65336 141.428 9.5625 142.147 9.5625C143.009 9.5625 143.775 9.70384 144.445 9.9865C145.116 10.2692 145.643 10.6932 146.026 11.2586C146.416 11.8239 146.611 12.5306 146.611 13.3786V18.0529C146.611 18.652 146.648 19.1433 146.723 19.5269C146.799 19.9038 146.909 20.2336 147.052 20.5163V20.6879H144.066C143.922 20.3918 143.813 20.0216 143.737 19.5774C143.669 19.1264 143.635 18.6755 143.635 18.2246ZM144.024 14.0349L144.045 15.6805H142.393C142.003 15.6805 141.664 15.7242 141.377 15.8117C141.09 15.8992 140.854 16.0237 140.669 16.1852C140.484 16.34 140.347 16.5218 140.259 16.7304C140.176 16.9391 140.135 17.1679 140.135 17.4169C140.135 17.6659 140.193 17.8914 140.31 18.0933C140.426 18.2885 140.594 18.4433 140.813 18.5577C141.031 18.6654 141.288 18.7192 141.582 18.7192C142.027 18.7192 142.414 18.6318 142.742 18.4568C143.07 18.2818 143.323 18.0664 143.501 17.8106C143.686 17.5549 143.782 17.3126 143.789 17.0837L144.569 18.3154C144.459 18.5914 144.309 18.8774 144.117 19.1736C143.932 19.4697 143.696 19.749 143.409 20.0115C143.121 20.2673 142.776 20.4793 142.372 20.6475C141.969 20.8091 141.49 20.8898 140.936 20.8898C140.231 20.8898 139.591 20.7518 139.017 20.4759C138.449 20.1932 137.997 19.8062 137.662 19.3149C137.334 18.8168 137.169 18.2515 137.169 17.6188C137.169 17.0468 137.279 16.5386 137.498 16.0944C137.717 15.6502 138.038 15.2766 138.463 14.9738C138.893 14.6642 139.43 14.432 140.073 14.2771C140.717 14.1156 141.463 14.0349 142.311 14.0349H144.024Z" fill="url(#paint7_linear_272_6687)"/>
<path d="M155.919 9.76443H158.597V20.3244C158.597 21.3206 158.372 22.1652 157.92 22.8584C157.475 23.5584 156.853 24.0868 156.052 24.4435C155.252 24.8069 154.321 24.9886 153.261 24.9886C152.796 24.9886 152.303 24.9281 151.783 24.8069C151.27 24.6858 150.777 24.4973 150.305 24.2416C149.84 23.9858 149.45 23.6627 149.135 23.2724L150.439 21.5561C150.781 21.9465 151.177 22.2494 151.629 22.4647C152.08 22.6868 152.58 22.7979 153.127 22.7979C153.661 22.7979 154.113 22.7003 154.482 22.5051C154.852 22.3166 155.135 22.0373 155.334 21.6672C155.532 21.3037 155.631 20.8629 155.631 20.3446V12.2883L155.919 9.76443ZM148.448 15.3574V15.1454C148.448 14.3108 148.55 13.5537 148.756 12.8739C148.968 12.1874 149.266 11.5984 149.648 11.1071C150.038 10.6158 150.511 10.2356 151.065 9.96631C151.619 9.69711 152.245 9.5625 152.943 9.5625C153.681 9.5625 154.301 9.69711 154.8 9.96631C155.3 10.2356 155.71 10.6192 156.031 11.1172C156.353 11.6085 156.603 12.1907 156.781 12.8638C156.966 13.5301 157.109 14.2603 157.212 15.0545V15.5189C157.109 16.2795 156.955 16.9862 156.75 17.639C156.545 18.2918 156.275 18.8639 155.939 19.3553C155.604 19.8399 155.187 20.2168 154.687 20.486C154.195 20.7552 153.606 20.8898 152.922 20.8898C152.238 20.8898 151.619 20.7518 151.065 20.4759C150.518 20.1999 150.049 19.8129 149.659 19.3149C149.269 18.8168 148.968 18.2313 148.756 17.5583C148.55 16.8852 148.448 16.1516 148.448 15.3574ZM151.403 15.1454V15.3574C151.403 15.8083 151.448 16.229 151.537 16.6194C151.626 17.0097 151.763 17.3563 151.947 17.6592C152.139 17.9553 152.375 18.1875 152.655 18.3558C152.943 18.5173 153.281 18.5981 153.671 18.5981C154.212 18.5981 154.653 18.4871 154.995 18.265C155.337 18.0361 155.594 17.7232 155.765 17.3261C155.936 16.929 156.035 16.4713 156.063 15.953V14.6305C156.049 14.2065 155.991 13.8262 155.888 13.4897C155.785 13.1465 155.642 12.8537 155.457 12.6114C155.272 12.3691 155.033 12.1806 154.739 12.046C154.444 11.9114 154.095 11.8441 153.692 11.8441C153.302 11.8441 152.963 11.9316 152.676 12.1066C152.395 12.2748 152.159 12.5071 151.968 12.8032C151.783 13.0993 151.643 13.4493 151.547 13.8532C151.451 14.2503 151.403 14.681 151.403 15.1454Z" fill="url(#paint8_linear_272_6687)"/>
<path d="M166.007 20.8898C165.145 20.8898 164.372 20.7552 163.688 20.486C163.003 20.21 162.422 19.8298 161.943 19.3452C161.471 18.8606 161.108 18.2986 160.855 17.6592C160.602 17.0131 160.476 16.3266 160.476 15.5997V15.1959C160.476 14.368 160.595 13.6108 160.835 12.9243C161.074 12.2379 161.416 11.6422 161.861 11.1374C162.312 10.6327 162.86 10.2456 163.503 9.97641C164.146 9.70047 164.871 9.5625 165.679 9.5625C166.465 9.5625 167.163 9.69038 167.772 9.94612C168.381 10.2019 168.891 10.5653 169.301 11.0365C169.718 11.5076 170.033 12.073 170.245 12.7325C170.457 13.3854 170.563 14.1123 170.563 14.9132V16.1247H161.738V14.1863H167.659V13.9642C167.659 13.5604 167.584 13.2003 167.433 12.884C167.29 12.5609 167.071 12.3051 166.777 12.1167C166.482 11.9282 166.106 11.834 165.647 11.834C165.258 11.834 164.923 11.9181 164.642 12.0864C164.361 12.2547 164.132 12.4902 163.954 12.7931C163.784 13.096 163.653 13.4527 163.564 13.8632C163.482 14.2671 163.441 14.7113 163.441 15.1959V15.5997C163.441 16.0372 163.503 16.441 163.626 16.8112C163.756 17.1814 163.937 17.501 164.17 17.7702C164.409 18.0395 164.697 18.2481 165.032 18.3962C165.374 18.5443 165.76 18.6183 166.192 18.6183C166.725 18.6183 167.221 18.5173 167.68 18.3154C168.145 18.1068 168.545 17.7938 168.88 17.3765L170.317 18.9111C170.085 19.2408 169.766 19.5572 169.363 19.8601C168.966 20.1629 168.487 20.412 167.926 20.6071C167.365 20.7956 166.725 20.8898 166.007 20.8898Z" fill="url(#paint9_linear_272_6687)"/>
<path d="M175.202 12.147V20.6879H172.246V9.76443H175.027L175.202 12.147ZM178.547 9.69374L178.496 12.3893C178.352 12.3691 178.178 12.3523 177.972 12.3388C177.774 12.3186 177.593 12.3085 177.428 12.3085C177.011 12.3085 176.649 12.3624 176.341 12.47C176.04 12.571 175.787 12.7224 175.581 12.9243C175.383 13.1263 175.232 13.3719 175.13 13.6613C175.034 13.9507 174.979 14.2805 174.965 14.6507L174.37 14.469C174.37 13.7623 174.442 13.1128 174.586 12.5205C174.729 11.9215 174.938 11.3999 175.212 10.9557C175.492 10.5115 175.834 10.1682 176.238 9.92593C176.642 9.68365 177.104 9.5625 177.623 9.5625C177.788 9.5625 177.955 9.57596 178.126 9.60288C178.298 9.62307 178.438 9.65336 178.547 9.69374Z" fill="url(#paint10_linear_272_6687)"/>
<path fill-rule="evenodd" clip-rule="evenodd" d="M81.5443 17.7082H85.6005V11.605H81.5443V17.7082ZM85.5782 9.20723H88.6934V20.5419C88.6934 22.4164 88.4915 22.7434 87.9762 23.2448C87.5727 23.6589 86.9231 23.8551 85.8024 23.8551H81.2533L79.8416 22.3292V21.6971H85.5782V20.1495H81.6568C80.4689 20.1495 79.8638 19.9315 79.3709 19.452C78.721 18.7981 78.4521 17.3812 78.4521 14.7002C78.4521 12.0191 78.7658 10.5369 79.4381 9.86115C79.9537 9.38161 80.581 9.18543 81.7017 9.18543L84.0321 9.20723L85.5782 10.5805V9.20723ZM48.8263 6.19922H52.5015L47.2128 12.7384L52.7255 20.1277H48.8263L44.6357 14.3297H43.6496V20.1277H40.333V6.19922H43.6496V11.605H44.6357L48.8263 6.19922ZM73.0285 12.6512V11.6485H71.908C71.8856 11.6485 71.8856 11.6485 71.8632 11.6485H70.9892C70.9668 11.6485 70.9668 11.6485 70.9444 11.6485H69.2189V12.6512V20.0841H66.1263V9.20723H68.1656H69.2189V9.40341V10.5805L70.7651 9.20723H71.6615C71.796 9.18543 71.9528 9.18543 72.1097 9.18543H73.4543C74.3955 9.18543 75.0006 9.38161 75.4263 9.79577C75.897 10.2317 76.0762 10.7984 76.0762 12.4114V20.0841H72.9837V12.782C73.0285 12.7384 73.0285 12.6948 73.0285 12.6512ZM56.7366 17.686H60.7927V11.5827H56.7366V17.686ZM56.8712 20.0841C55.7507 20.0841 55.1457 19.9097 54.6751 19.4084C53.958 18.6891 53.6667 17.7082 53.6667 14.6348C53.6667 11.5396 53.958 10.5805 54.6751 9.83936C55.1457 9.35981 55.7507 9.18543 56.8712 9.18543H60.6361C61.7565 9.18543 62.3616 9.35981 62.8322 9.83936C63.5493 10.5805 63.8406 11.5396 63.8406 14.6348C63.8406 17.73 63.5493 18.6891 62.8322 19.4084C62.3392 19.9097 61.7565 20.0841 60.6361 20.0841H56.8712Z" fill="#F7F9FC"/>
</g>
<defs>
<linearGradient id="paint0_linear_272_6687" x1="-0.0309504" y1="24.3812" x2="21.4089" y2="2.96482" gradientUnits="userSpaceOnUse">
<stop stop-color="#1155CB"/>
<stop offset="1" stop-color="#1DB57C"/>
</linearGradient>
<linearGradient id="paint1_linear_272_6687" x1="-0.257053" y1="24.3811" x2="20.9743" y2="2.76179" gradientUnits="userSpaceOnUse">
<stop stop-color="#1155CB"/>
<stop offset="1" stop-color="#1DB57C"/>
</linearGradient>
<linearGradient id="paint2_linear_272_6687" x1="-0.0728269" y1="24.7728" x2="21.4368" y2="3.0531" gradientUnits="userSpaceOnUse">
<stop stop-color="#1155CB"/>
<stop offset="1" stop-color="#1DB57C"/>
</linearGradient>
<linearGradient id="paint3_linear_272_6687" x1="0.0221322" y1="24.3811" x2="21.4124" y2="3.65419" gradientUnits="userSpaceOnUse">
<stop stop-color="#1155CB"/>
<stop offset="1" stop-color="#1DB57C"/>
</linearGradient>
<linearGradient id="paint4_linear_272_6687" x1="156.682" y1="12.2705" x2="150.01" y2="38.5842" gradientUnits="userSpaceOnUse">
<stop stop-color="#11A06B"/>
<stop offset="1" stop-color="#286FEB"/>
</linearGradient>
<linearGradient id="paint5_linear_272_6687" x1="156.682" y1="12.2709" x2="150.01" y2="38.5846" gradientUnits="userSpaceOnUse">
<stop stop-color="#11A06B"/>
<stop offset="1" stop-color="#286FEB"/>
</linearGradient>
<linearGradient id="paint6_linear_272_6687" x1="156.682" y1="12.2709" x2="150.01" y2="38.5846" gradientUnits="userSpaceOnUse">
<stop stop-color="#11A06B"/>
<stop offset="1" stop-color="#286FEB"/>
</linearGradient>
<linearGradient id="paint7_linear_272_6687" x1="156.682" y1="12.2709" x2="150.01" y2="38.5846" gradientUnits="userSpaceOnUse">
<stop stop-color="#11A06B"/>
<stop offset="1" stop-color="#286FEB"/>
</linearGradient>
<linearGradient id="paint8_linear_272_6687" x1="156.682" y1="12.2709" x2="150.01" y2="38.5846" gradientUnits="userSpaceOnUse">
<stop stop-color="#11A06B"/>
<stop offset="1" stop-color="#286FEB"/>
</linearGradient>
<linearGradient id="paint9_linear_272_6687" x1="156.682" y1="12.2709" x2="150.01" y2="38.5846" gradientUnits="userSpaceOnUse">
<stop stop-color="#11A06B"/>
<stop offset="1" stop-color="#286FEB"/>
</linearGradient>
<linearGradient id="paint10_linear_272_6687" x1="156.682" y1="12.2709" x2="150.01" y2="38.5846" gradientUnits="userSpaceOnUse">
<stop stop-color="#11A06B"/>
<stop offset="1" stop-color="#286FEB"/>
</linearGradient>
<clipPath id="clip0_272_6687">
<rect width="139" height="20" fill="white" transform="translate(39.4443 4.39551)"/>
</clipPath>
</defs>
</svg>
